inDegrees=no
num_controls=7
num_derivatives=13
num_iterations=141
num_multipliers=7
num_parameters=0
num_slacks=7
num_states=26
objective=0.477031
objective_accelerations=0.044174
objective_balance=0.003629
objective_effort=0.040376
objective_height=0.383188
objective_ligament=0.005664
solver_duration=1918.034869
status=Solve_Succeeded
success=true
DataType=double
version=3
OpenSimVersion=4.5
endheader
time	/jointset/ground_pelvis/pelvis_tilt/value	/jointset/ground_pelvis/pelvis_tx/value	/jointset/ground_pelvis/pelvis_ty/value	/jointset/hip_l/hip_flexion_l/value	/jointset/hip_l/hip_adduction_l/value	/jointset/hip_l/hip_rotation_l/value	/jointset/back/lumbar_extension/value	/jointset/patellofemoral_l/patellar_flexion_l/value	/jointset/knee_l/knee_flexion_l/value	/jointset/knee_l/knee_adduction_l/value	/jointset/knee_l/knee_rotation_l/value	/jointset/ankle_l/ankle_angle_l/value	/jointset/subtalar_l/subtalar_angle_l/value	/jointset/ground_pelvis/pelvis_tilt/speed	/jointset/ground_pelvis/pelvis_tx/speed	/jointset/ground_pelvis/pelvis_ty/speed	/jointset/hip_l/hip_flexion_l/speed	/jointset/hip_l/hip_adduction_l/speed	/jointset/hip_l/hip_rotation_l/speed	/jointset/back/lumbar_extension/speed	/jointset/patellofemoral_l/patellar_flexion_l/speed	/jointset/knee_l/knee_flexion_l/speed	/jointset/knee_l/knee_adduction_l/speed	/jointset/knee_l/knee_rotation_l/speed	/jointset/ankle_l/ankle_angle_l/speed	/jointset/subtalar_l/subtalar_angle_l/speed	/forceset/tau_hip_flexion_l	/forceset/tau_hip_adduction_l	/forceset/tau_hip_rotation_l	/forceset/tau_knee_flexion_l	/forceset/tau_ankle_angle_l	/forceset/tau_subtalar_angle_l	/forceset/tau_lumbar_extension	lambda_cid13_p0	lambda_cid13_p1	lambda_cid13_p2	lambda_cid13_p3	lambda_cid13_p4	lambda_cid13_p5	lambda_cid14_p0	/jointset/ground_pelvis/pelvis_tilt/accel	/jointset/ground_pelvis/pelvis_tx/accel	/jointset/ground_pelvis/pelvis_ty/accel	/jointset/hip_l/hip_flexion_l/accel	/jointset/hip_l/hip_adduction_l/accel	/jointset/hip_l/hip_rotation_l/accel	/jointset/back/lumbar_extension/accel	/jointset/patellofemoral_l/patellar_flexion_l/accel	/jointset/knee_l/knee_flexion_l/accel	/jointset/knee_l/knee_adduction_l/accel	/jointset/knee_l/knee_rotation_l/accel	/jointset/ankle_l/ankle_angle_l/accel	/jointset/subtalar_l/subtalar_angle_l/accel	gamma_cid13_p0	gamma_cid13_p1	gamma_cid13_p2	gamma_cid13_p3	gamma_cid13_p4	gamma_cid13_p5	gamma_cid14_p0
1.5	0.01235321117605353	-0.01090912742931201	0.8529884067437816	0.6681158356808066	-0.3223299653271594	-0.1332031157580955	-0.7961232603500621	0.7778056557429012	0.777805655742817	-0.1025112687556216	-0.1744654784407791	0.1550871384502069	0.02497465226486482	0.3109816077143582	0.2308622820821589	0.4208748532119322	-1.970175851517612	0.08456391364816934	-0.6421835174731455	0.8403260438798058	-1.996016043166935	-1.996016043167035	-0.1460349281390417	-0.0006717802251913983	-0.458960574554838	-0.06450625301437464	-0.1932534964973293	0.0190673503831217	-0.005334018135284472	-0.2294990632161528	0.06595028328091	0.04317347927369731	0.2767416982460912	-20.81492000341945	-17.5405194547105	5.123280186472975	-7.967003440659069	-669.250020139082	-78.37345562588705	-15.27980522600565	-0.02382690376866464	0.6516777467064726	-0.6171438816782729	-0.678509763669643	0.4710985299910745	-0.3613444328373798	1.962449801206537	-0.9931507196058788	-0.9931507196058822	-0.2593245874477427	0.02764513039123146	-0.2787104820486974	0.4547877996706708	3.282082209609742e-07	9.998041474697362e-07	-1.466650978455201e-06	-2.379448881229537e-08	4.140582501724828e-07	5.932149275202574e-07	2.964092251960785e-07
1.51	0.01546170465314059	-0.008568146013168279	0.8571654757390663	0.6483818985358886	-0.3214616589063689	-0.1396430480128547	-0.7876233832185486	0.7577981333678393	0.7577981333678135	-0.1039859754431153	-0.1744723651735989	0.1504840091240848	0.02435134609190336	0.3106747523539887	0.2373074711122161	0.4144521241573884	-1.976352865117232	0.08909300212037624	-0.6457111810764827	0.8595294677160615	-2.005207733106115	-2.00520773310625	-0.1489239403598748	-0.0006884562048061582	-0.4615807727905786	-0.06013920355253573	-0.1860765611501209	0.01812890951531828	-0.005114819096991727	-0.2256662232202905	0.0666022639838762	0.04245873931653063	0.2696853623129027	-20.37616633912038	-17.3485438781866	5.140206141099162	-7.87613277410347	-664.7408052933766	-78.29414264780097	-15.99609130608448	-0.04045589759345218	0.6369831296878422	-0.6677911183210443	-0.5484780101174678	0.4430756660444003	-0.3344729310238949	1.881301468801679	-0.8401231966569752	-0.8401231966621497	-0.3060882260601611	-0.01389260575587314	-0.2409419932937379	0.4298630865844527	2.558137157068656e-07	1.370428782465319e-06	-9.568323772408448e-07	6.831692072379605e-08	3.703019214775785e-07	6.294866320610873e-07	2.653712736482448e-07
1.52	0.01856586136753885	-0.006163503977017516	0.86127572670361	0.6285939550845707	-0.3205482092688142	-0.1461154560250374	-0.7789350692898793	0.7377071050802719	0.7377071050802992	-0.1054900519901549	-0.1744789323949227	0.1458572243158135	0.02377215032698908	0.3101142551767267	0.2435944060835644	0.4075112470637015	-1.980977112797222	0.09359255700094118	-0.6486786689574993	0.8780134033109831	-2.012717225668611	-2.012717225668779	-0.1519089000470706	-0.0006078779291432441	-0.4636916709845987	-0.05568417140493882	-0.1788996258029211	0.01719046864750778	-0.004895620058743376	-0.2218333832244293	0.06725424468684038	0.04174399935935535	0.2626290263797093	-19.93648998135962	-17.15842245282678	5.159361843684418	-7.824385838886339	-660.2494926523049	-78.25624054889414	-16.70164566003697	-0.07455526714718723	0.6200269349647325	-0.7207734895068595	-0.3679565797435254	0.4651918116627032	-0.2493092883731971	1.818552152939676	-0.6567112442688353	-0.6567112442688388	-0.2785140807202632	0.04709598144681584	-0.1768504737045614	0.4723843368222972	1.982501676174141e-07	1.68823505816581e-06	-5.576137615201724e-07	1.411307738454015e-07	3.422032805317237e-07	6.573375503386923e-07	2.432117424011866e-07
1.53	0.0216631758878779	-0.003696847475457873	0.8653140774766375	0.6087674658100227	-0.3195898021092994	-0.1526159234002687	-0.7700658226514893	0.7175493786481151	0.7175493786480902	-0.1070235309558276	-0.1744849451937708	0.1412119025129428	0.02323810708643524	0.3093049182895646	0.2497035835032204	0.400080048387272	-1.984056650000581	0.09808404926494674	-0.6513281128430444	0.8956910823665173	-2.018541908499001	-2.018541908499144	-0.1547923761109669	-0.0005793258312853873	-0.4652854267712827	-0.05110825340775646	-0.1714662060993971	0.01602370307133351	-0.004744518606908753	-0.2184709665932442	0.06828709857172549	0.04092084475451921	0.2553721388569826	-19.39637048530756	-16.93171473925027	5.164587187030236	-7.763621414964026	-655.9902793005616	-78.20648061596792	-17.39693851878555	-0.09069010595954814	0.6014108258200002	-0.7660570089789501	-0.238345706509929	0.4401706772561954	-0.2595460064481404	1.720649481776841	-0.5024686973755037	-0.5024686973717037	-0.2937469115364915	-0.01699390217498645	-0.1374792870105773	0.4523118693085393	1.564445115154108e-07	1.949921827115264e-06	-2.759076303865374e-07	1.934409732766159e-07	3.30740932819234e-07	6.762413832116208e-07	2.304855327237023e-07
1.54	0.02475108359805247	-0.001170089663630922	0.8692757634724473	0.5889181024802639	-0.3185866714784477	-0.1591402420279157	-0.7610241444825609	0.6973419810086627	0.6973419810085889	-0.1085859411906006	-0.1744902182168904	0.1365532749210331	0.02275024629348168	0.3082328931440525	0.2556146681370259	0.392178291620123	-1.985551923839053	0.1025372512684207	-0.6534489194407087	0.9124997094187154	-2.022651467127447	-2.022651467127565	-0.1576951538673506	-0.0004599227786381743	-0.466352828792377	-0.04644768188488076	-0.1640327863958786	0.01485693749515986	-0.004593417155069797	-0.2151085499620608	0.06931995245661093	0.04009769014968395	0.2481152513342512	-18.85328747999799	-16.70711087950199	5.171958628229613	-7.742609757407841	-651.7179519876295	-78.18304665487854	-18.08297257794652	-0.1270929188171766	0.5804083777946738	-0.8148851076507339	-0.05110390676610146	0.4575337595563954	-0.1435818307969874	1.6447417522724	-0.313686403880126	-0.3136864038801424	-0.2823744192177525	0.06526617240473424	-0.07157972058664117	0.4893150419609861	1.152351754569602e-07	2.099088271583347e-06	-6.432520468970167e-08	2.353156158431197e-07	2.976212273655282e-07	6.679606609559261e-07	2.164995030513394e-07
1.55	0.02782682171260459	0.001414681565547019	0.8731561081450947	0.5690621383304488	-0.3175390543715851	-0.1656833839117245	-0.7518187369734136	0.6771023806070517	0.6771023806069555	-0.1101769180727044	-0.1744939131495241	0.1318867069676009	0.0223096321475977	0.3068738892667854	0.261294970402253	0.3838195050600712	-1.985365209277564	0.1069813191495596	-0.655087776351546	0.9284131942021779	-2.024970779490906	-2.024970779490936	-0.1604920214736726	-0.0002582999780458485	-0.4668735172840179	-0.0416590024010192	-0.1566277467087765	0.01371009543290863	-0.004508594791375729	-0.2117150751731199	0.07003477357705752	0.03919987655407528	0.2408426510414817	-18.43423879859688	-16.42680196439063	5.168663422953459	-7.529326024625451	-647.6783188139403	-78.08466375725051	-18.7523944764388	-0.1464447271967974	0.5552064066077015	-0.8570046504011509	0.09489635506386473	0.4368334523985309	-0.1601125816722095	1.539362110089806	-0.1464170939199345	-0.1464170939068018	-0.2767533552647899	0.0007379320356874462	-0.02916238285925271	0.475712792425719	7.471290379651592e-08	2.118611733496811e-06	6.646251691691316e-08	2.651666820220227e-07	2.395484792969443e-07	6.283586034433414e-07	2.01061941645747e-07
1.56	0.03088774166737993	0.004054928868521385	0.876950739108098	0.5492163087697387	-0.3164471985559106	-0.1722401293567291	-0.7424592525626907	0.6568485143935241	0.6568485143934318	-0.1117955457156398	-0.1744949663345436	0.1272175623353711	0.02191731847471771	0.3052692611889098	0.2667098828963111	0.3750355496912649	-1.983525006017776	0.1113849930309323	-0.6561696316801907	0.943315089733908	-2.025504629508014	-2.025504629507957	-0.1632253060370102	6.842674851595745e-05	-0.4668681645519165	-0.03678758728407842	-0.1492227070216776	0.01256325337066393	-0.004423772427514012	-0.2083216003841884	0.07074959469750509	0.03830206295847197	0.2335700507487076	-18.0179248947378	-16.14682553637564	5.166348180964618	-7.333337354818067	-643.7023993391443	-78.01178082013641	-19.39507164838376	-0.17621775893891	0.5273304235609195	-0.8999188694016427	0.2795938328937815	0.4494549596031542	-0.03218151435845427	1.442423901925924	0.04340606538989893	0.0434060653898991	-0.2696578106208838	0.09028695759865264	0.03362852416181303	0.5058621685768467	5.445756739349302e-08	2.091855669873641e-06	1.009941811458304e-07	2.745354775678954e-07	2.079244238722037e-07	6.046437045649258e-07	1.931677644233796e-07
